<?xml version="1.0" standalone="no"?>
<!DOCTYPE svg PUBLIC "-//W3C//DTD SVG 20010904//EN"
 "http://www.w3.org/TR/2001/REC-SVG-20010904/DTD/svg10.dtd">
<svg version="1.0" xmlns="http://www.w3.org/2000/svg"
 width="25.000000pt" height="25.000000pt" viewBox="0 0 25.000000 25.000000"
 preserveAspectRatio="xMidYMid meet">

<g transform="translate(0.000000,25.000000) scale(0.100000,-0.100000)"
fill="#000000" stroke="none">
<path d="M113 203 c-8 -19 -50 -62 -79 -79 -31 -19 -10 -25 28 -9 36 14 36 14
48 -16 11 -25 10 -32 -4 -48 -15 -17 -14 -18 19 -18 28 0 32 3 24 14 -7 7 -9
27 -5 47 l7 35 39 -14 c52 -18 51 -5 -5 36 -24 19 -45 42 -45 52 0 22 -19 22
-27 0z"/>
</g>
</svg>
